<svg width="324" height="115" viewBox="0 0 324 115" fill="none" xmlns="http://www.w3.org/2000/svg">
<line x1="0.221498" y1="114.522" x2="85.2215" y2="72.5219" stroke="black"/>
<line x1="84.4714" y1="72.471" x2="207.471" y2="79.471" stroke="black"/>
<line x1="207.215" y1="79.5254" x2="281.215" y2="41.5254" stroke="black"/>
<line x1="280.983" y1="42.1671" x2="271.983" y2="21.1671" stroke="black"/>
<line x1="280.575" y1="41.4878" x2="302.575" y2="47.4878" stroke="black"/>
<line x1="272.054" y1="21.6556" x2="289.054" y2="0.655554" stroke="black"/>
<line x1="302.118" y1="47.5905" x2="323.118" y2="29.5905" stroke="black"/>
<line x1="288.564" y1="0.485083" x2="312.564" y2="6.48508" stroke="black"/>
<line x1="322.988" y1="30.1785" x2="311.988" y2="6.17848" stroke="black"/>
<path d="M288.926 0.842925L296.943 22.4702" stroke="black"/>
<path d="M322.943 30.4702L297.279 22.4426" stroke="black"/>
<line x1="297.763" y1="22.3543" x2="285.763" y2="32.3543" stroke="black"/>
<line x1="292.917" y1="2.81204" x2="298.917" y2="20.812" stroke="black"/>
<line x1="292.551" y1="3.48206" x2="310.551" y2="7.48206" stroke="black"/>
<line x1="309.895" y1="6.75611" x2="318.895" y2="25.7561" stroke="black"/>
<line x1="319.299" y1="26.4491" x2="299.299" y2="20.4491" stroke="black"/>
<line x1="295.921" y1="5.82311" x2="299.921" y2="18.8231" stroke="black"/>
<line x1="299.592" y1="18.4929" x2="315.592" y2="23.4929" stroke="black"/>
<line x1="308.896" y1="8.75871" x2="315.896" y2="23.7587" stroke="black"/>
<line x1="296.555" y1="6.48296" x2="309.555" y2="9.48296" stroke="black"/>
<line x1="298.928" y1="8.84889" x2="300.928" y2="16.8489" stroke="black"/>
<line x1="300.601" y1="16.4958" x2="312.601" y2="20.4958" stroke="black"/>
<line x1="307.89" y1="10.7465" x2="312.89" y2="20.7465" stroke="black"/>
<line x1="299.551" y1="9.48206" x2="308.551" y2="11.4821" stroke="black"/>
<line x1="301.89" y1="11.7465" x2="303.89" y2="15.7465" stroke="black"/>
<line x1="303.629" y1="15.5059" x2="308.629" y2="17.5059" stroke="black"/>
<line x1="302.629" y1="11.5059" x2="307.629" y2="13.5059" stroke="black"/>
<line x1="306.928" y1="12.8489" x2="307.928" y2="16.8489" stroke="black"/>
<line x1="207.031" y1="80.2534" x2="196.031" y2="64.2534" stroke="black"/>
<line x1="210.935" y1="62.057" x2="207.935" y2="79.057" stroke="black"/>
<line x1="195.972" y1="64.802" x2="200.972" y2="50.802" stroke="black"/>
<line x1="201.83" y1="50.6535" x2="210.83" y2="61.6535" stroke="black"/>
<line x1="84.8788" y1="72.725" x2="93.8788" y2="88.725" stroke="black"/>
<line x1="85.708" y1="72.5462" x2="101.708" y2="82.5462" stroke="black"/>
<line x1="92.5252" y1="88.477" x2="104.525" y2="90.477" stroke="black"/>
<line x1="101.917" y1="81.812" x2="104.917" y2="90.812" stroke="black"/>
</svg>
